<?xml version="1.0" encoding="utf-8"?>
<svg version="1.1" xmlns:xlink="http://www.w3.org/1999/xlink" width="122px" height="128px" xmlns="http://www.w3.org/2000/svg">
  <g transform="matrix(1 0 0 1 -121 -74 )">
    <path d="M 89.799111125 64.0000000178157  C 107.472223119585 64.0000000178157  121.799111125 78.3268880192421  121.799111125 96.0000000089078  C 121.799111125 113.673111998574  107.472223119585 128  89.799111125 128  C 72.1259991304146 128  57.799111125 113.673111998574  57.799111125 96.0000000089078  C 57.799111125 78.3268880192421  72.1259991304146 64.0000000178157  89.799111125 64.0000000178157  Z M 23.509333375 0  L 92.16 0  C 104.098432386846 -0.000665241370321104  113.96302954446 9.3148587976309  114.645333375 21.2337777797205  L 114 22.5137777793642  L 114 61.3973333935402  C 114.680892892444 61.3995154573251  114.680894901168 61.4016975243598  114.680894901168 61.4038795918431  C 114.680894901168 63.3675586711235  113.089018480995 64.9594350908533  111.125339401168 64.9594350908533  C 109.405998485631 64.9594350908533  107.932982484605 63.7291678345531  107.626666625 62.037333393362  L 107 61.3973333935402  L 107 22.5137777793641  C 107.568101332351 14.4321105232206  101.323189562155 7.72472762250703  93.26222225 7.14666665864189  L 92.16 8  L 23.50222225 8  C 15.4232924919326 7.10940417230838  8.72008589084136 13.3533169617863  8.14222225 21.411555529671  L 8 22.5137777793642  L 8 105.344000006307  C 8.0995555 113.479111129042  14.407111 120.142222252187  22.407111125 120.704000002031  L 23.50222225 120  L 58.986666625 120  C 58.9888486887856 120.746662609575  58.9910307558208 120.746660600851  58.9932128233047 120.746660600851  C 60.9568919031317 120.746660600851  62.5487683233047 122.338537020581  62.5487683233047 124.302216099861  C 62.5487683233047 126.02155701492  61.3185010666621 127.494573015535  59.626666625 127.800888875055  L 58.986666625 127  L 23.50222225 127  C 11.5639422383682 127.854458205457  1.70252511047536 118.535871398385  1.02399999999999 106.616888880952  L 1 105.336888881309  L 1 22.5208889043622  C 0.984222998639633 10.57711859309  10.3048691259795 0.707281425087168  22.229333375 0.0284445356233848  L 23.509333375 0  Z M 89.799111125 71.1111111408361  C 76.0533573591042 71.1111111408361  64.91022225 82.2542462468384  64.91022225 96.0000000089078  C 64.91022225 109.745753770977  76.0533573591042 120.88888887698  89.799111125 120.88888887698  C 103.544864890896 120.88888887698  114.688 109.745753770977  114.688 96.0000000089078  C 114.688 82.2542462468384  103.544864890896 71.1111111408361  89.799111125 71.1111111408361  Z M 42.453333375 85  L 42.44622225 85.3333333868771  C 42.4484040812955 85.3333293702888  42.4505859158241 85.3333273619933  42.4527677508167 85.3333273619933  C 44.4164468306437 85.3333273619933  46.0083232508167 86.9252037817232  46.0083232508167 88.8888828610036  C 46.0083232508167 90.6082235087081  44.7780563675189 92.0812393607442  43.08622225 92.3875555099134  L 42.453333375 92  L 22.25777775 92  C 22.2555956862098 92.444448527342  22.2534136191837 92.4444505360654  22.2512315516952 92.4444505360654  C 20.2875524718682 92.4444505360654  18.6956760516952 90.8525741163356  18.6956760516952 88.8888950370552  C 18.6956760516952 87.1695541219967  19.9259433083379 85.6965381213814  21.61777775 85.3902222618613  L 22.25777775 85  L 42.453333375 85  Z M 56.661333375 57  L 56.6684445 56.8888888947952  C 56.6706265637902 56.8888848773508  56.6728086308163 56.8888828686273  56.6749906983048 56.8888828686273  C 58.6386697781317 56.8888828686273  60.2305461983048 58.4807592883572  60.2305461983048 60.4444383676375  C 60.2305461983048 62.163779282696  59.0002789416621 63.6367952833114  57.3084445 63.9431111428315  L 56.6755555 64  L 22.25777775 64  C 22.2555956862144 64.00000403526  22.2534136191791 64.0000060439835  22.2512315516952 64.0000060439835  C 20.2875524718682 64.0000060439835  18.6956760516952 62.4081296242537  18.6956760516952 60.4444505449733  C 18.6956760516952 58.7251096299148  19.9259433083379 57.2520936292994  21.61777775 56.9457777697793  L 22.2435555 57  L 56.661333375 57  Z M 80.1396907358036 83.0410241233188  C 81.0612890463893 83.0410241233188  81.9468831232974 83.3988657469884  82.60977775 84.0391111372374  L 90.709333375 92.1315555099847  L 98.80177775 84.0391111372374  C 99.4646725545962 83.3988646427946  100.350267419628 83.0410223258337  101.271866625268 83.0410223258337  C 103.235545705095 83.0410223258337  104.827422125268 84.6328987455636  104.827422125268 86.596577824844  C 104.827422125268 87.518176999646  104.469579831895 88.4037718375041  103.829333375 89.0666666358378  L 95.736888875 97.1591111335852  L 103.829333375 105.25866663133  C 104.469580936134 105.921561607564  104.827423922827 106.807157233578  104.827423922827 107.72875730347  C 104.827423922827 109.69243638275  103.235547502654 111.28431280248  101.271868422827 111.28431280248  C 100.350268352678 111.28431280248  99.4646727264179 110.926469815886  98.80177775 110.286222254931  L 90.709333375 102.193777757184  L 82.60977775 110.286222254931  C 81.9397819336192 110.979918744311  81.0167327607393 111.371688879361  80.0523110616815 111.371688879361  C 78.0886319818544 111.371688879361  76.4967555616815 109.779812459631  76.4967555616815 107.816133380351  C 76.4967555616815 106.851711650875  76.8885257216963 105.928662451596  77.58222225 105.25866663133  L 85.674666625 97.1591111335852  L 77.58222225 89.0666666358378  C 76.9419768595728 88.4037720093198  76.5841352358036 87.5181779326582  76.5841352358036 86.596579622329  C 76.5841352358036 84.6329005430486  78.1760116559766 83.0410241233188  80.1396907358036 83.0410241233188  Z M 93.354666625 29  L 93.3475555 28.4444445277132  C 93.3497373312932 28.4444405111249  93.3519191658264 28.4444385028295  93.3541010008167 28.4444385028295  C 95.3177800806437 28.4444385028295  96.9096565008167 30.0363149225593  96.9096565008167 31.9999940018397  C 96.9096565008167 33.7193346495443  95.6793896175189 35.1923505015804  93.9875555 35.4986666507496  L 93.3475555 36  L 22.2364445 36  C 22.2342626687045 35.555559542322  22.2320808341759 35.5555615506175  22.2298989991833 35.5555615506175  C 20.2662199193563 35.5555615506175  18.6743434991833 33.9636851308876  18.6743434991833 32.0000060516072  C 18.6743434991833 30.2806654039027  19.9046103824811 28.8076495518666  21.5964445 28.5013334026974  L 22.2435555 29  L 93.354666625 29  Z " fill-rule="nonzero" fill="#8598c4" stroke="none" transform="matrix(1 0 0 1 121 74 )" />
  </g>
</svg>