<?xml version="1.0" standalone="no"?><!DOCTYPE svg PUBLIC "-//W3C//DTD SVG 1.1//EN" "http://www.w3.org/Graphics/SVG/1.1/DTD/svg11.dtd"><svg t="1699412952514" class="icon" viewBox="0 0 1024 1024" version="1.1" xmlns="http://www.w3.org/2000/svg" p-id="2431" xmlns:xlink="http://www.w3.org/1999/xlink" width="200" height="200"><path d="M664.05295 504.559424a349.486043 349.486043 0 0 0-87.371511-54.220431 228.374101 228.374101 0 1 0-239.719137 0c-146.52777 62.397698-252.169209 235.741007-252.169208 439.288633a29.467626 29.467626 0 0 0 29.467625 29.467626h368.345324a276.111655 276.111655 0 0 1 181.446907-414.535828z" fill="#333333" p-id="2432"></path><path d="M874.599137 618.820144a221.007194 221.007194 0 1 0 0 312.577842 221.37554 221.37554 0 0 0 0-312.577842z m-41.696691 270.881151a162.071942 162.071942 0 1 1 0-229.18446 162.071942 162.071942 0 0 1 0 229.479136z" fill="#333333" p-id="2433"></path><path d="M814.116835 745.97295h-66.302159v-66.302159a29.467626 29.467626 0 0 0-58.935252 0v66.302159h-66.302158a29.467626 29.467626 0 0 0 0 58.935251h66.302158v66.302159a29.467626 29.467626 0 0 0 58.935252 0v-66.302159h66.302159a29.467626 29.467626 0 0 0 0-58.935251z" fill="#333333" p-id="2434"></path></svg>