<?xml version="1.0" standalone="no"?><!DOCTYPE svg PUBLIC "-//W3C//DTD SVG 1.1//EN" "http://www.w3.org/Graphics/SVG/1.1/DTD/svg11.dtd"><svg class="icon" width="200px" height="200.00px" viewBox="0 0 1024 1024" version="1.1" xmlns="http://www.w3.org/2000/svg"><path fill="#000000" d="M467.676004 628.447129 343.346347 518.290263c-14.113439-12.426007-38.157042-12.426007-52.144614 0-7.306406 6.494924-11.302417 15.113209-11.302417 24.354688 0 9.3039 3.997034 17.984606 11.302417 24.478508l147.186224 130.452097c0.686638 1.060145 1.622964 2.559289 3.245927 3.996011 6.933923 6.119371 16.112979 9.491165 26.542516 9.491165l0.063445 0c0.060375 0 0.936325 0 0.9967 0 9.868765 0 19.10922-3.371794 26.103518-9.55461 1.622964-1.499144 2.622734-2.998287 3.435239-4.432962l233.488799-263.213797c7.242961-6.494924 11.238972-15.112186 11.238972-24.352641 0-9.305947-3.996011-17.984606-11.238972-24.479531-14.114462-12.364609-37.406958-13.114692-52.892651 0.748037L467.676004 628.447129zM895.373992 127.624702 703.537849 127.624702c0-35.157731-28.788673-63.945381-63.944358-63.945381L383.810944 63.679321c-35.155684 0-63.945381 28.78765-63.945381 63.945381L128.02942 127.624702c-35.157731 0-63.945381 28.786627-63.945381 63.944358l0 703.400215c0 35.156708 28.78765 63.944358 63.945381 63.944358l767.345596 0c35.155684 0 63.944358-28.78765 63.944358-63.944358l0-703.400215C959.319373 156.411329 930.5307 127.624702 895.373992 127.624702zM383.810944 127.624702l255.782547 0 0 63.944358L383.810944 191.56906 383.810944 127.624702zM895.373992 894.969275 128.02942 894.969275l0-703.400215 191.836143 0c0 35.157731 28.789697 63.945381 63.945381 63.945381l255.782547 0c35.155684 0 63.944358-28.78765 63.944358-63.945381l191.837166 0L895.375016 894.969275z" /></svg>