<?xml version="1.0" standalone="no"?><!DOCTYPE svg PUBLIC "-//W3C//DTD SVG 1.1//EN" "http://www.w3.org/Graphics/SVG/1.1/DTD/svg11.dtd"><svg t="1679036218541" class="icon" viewBox="0 0 1024 1024" version="1.1" xmlns="http://www.w3.org/2000/svg" p-id="4576" xmlns:xlink="http://www.w3.org/1999/xlink" width="200" height="200"><path d="M832 960H192c-17.67 0-32-14.33-32-32V450c0-11.19 5.84-21.56 15.41-27.36l320-194a32.008 32.008 0 0 1 33.18 0l320 194A31.997 31.997 0 0 1 864 450v478c0 17.67-14.33 32-32 32z m-608-64h576V468.02l-288-174.6-288 174.6V896z" p-id="4577"></path><path d="M927.97 384a31.83 31.83 0 0 1-16.74-4.75L512 133.57 112.77 379.25c-15.05 9.26-34.76 4.57-44.02-10.48-9.26-15.05-4.57-34.76 10.48-44.02l416-256a31.993 31.993 0 0 1 33.54 0l416 256c15.05 9.26 19.74 28.97 10.48 44.02-6.04 9.82-16.54 15.23-27.28 15.23zM384 866h-64v-96c0-17.67 14.33-32 32-32s32 14.33 32 32v96zM490.67 866h-64V706c0-17.67 14.33-32 32-32s32 14.33 32 32v160zM597.33 866h-64V744c0-17.67 14.33-32 32-32s32 14.33 32 32v122zM704 866h-64V642c0-17.67 14.33-32 32-32s32 14.33 32 32v224z" p-id="4578"></path><path d="M335 706c-3.82 0-7.63-1.45-10.56-4.35-5.88-5.83-5.93-15.33-0.09-21.21l113-114c5.47-5.52 14.25-5.95 20.23-0.99l104.2 86.39 97.76-146.18c4.61-6.89 13.92-8.74 20.81-4.13 6.89 4.6 8.74 13.92 4.13 20.81l-107 160a14.994 14.994 0 0 1-10.31 6.5c-4.2 0.61-8.47-0.58-11.73-3.3L449.01 597.3 345.65 701.56A14.937 14.937 0 0 1 335 706z" p-id="4579"></path><path d="M704.21 465.84c-6.75 28.29-11.2 66-7.66 93.59l-28.77-39.11-47.12-11.65c26.84-7.26 59.99-25.79 83.55-42.83z" p-id="4580"></path></svg>