<?xml version="1.0" standalone="no"?><!DOCTYPE svg PUBLIC "-//W3C//DTD SVG 1.1//EN" "http://www.w3.org/Graphics/SVG/1.1/DTD/svg11.dtd"><svg class="icon" width="200px" height="200.00px" viewBox="0 0 1024 1024" version="1.1" xmlns="http://www.w3.org/2000/svg"><path fill="#000000" d="M640 896c0-46.933333 25.6-89.6 64-110.933333-12.8-17.066667-21.333333-38.4-21.333333-59.733334 0-46.933333 38.4-85.333333 85.333333-85.333333s85.333333 38.4 85.333333 85.333333c0 21.333333-8.533333 42.666667-21.333333 59.733334 38.4 21.333333 64 64 64 110.933333h-42.666667c0-46.933333-38.4-85.333333-85.333333-85.333333s-85.333333 38.4-85.333333 85.333333h-42.666667z m256-256h-42.666667v-89.6l-320-320L213.333333 550.4V810.666667h341.333334v42.666666H170.666667v-277.333333H128L533.333333 170.666667l405.333334 405.333333h-42.666667V640z m-128 42.666667c-25.6 0-42.666667 17.066667-42.666667 42.666666s17.066667 42.666667 42.666667 42.666667 42.666667-17.066667 42.666667-42.666667-17.066667-42.666667-42.666667-42.666666z"  /></svg>