<?xml version="1.0" standalone="no"?><!DOCTYPE svg PUBLIC "-//W3C//DTD SVG 1.1//EN" "http://www.w3.org/Graphics/SVG/1.1/DTD/svg11.dtd"><svg t="1680505397582" class="icon" viewBox="0 0 1024 1024" version="1.1" xmlns="http://www.w3.org/2000/svg" p-id="10526" xmlns:xlink="http://www.w3.org/1999/xlink" width="200" height="200"><path d="M628.65 696.43c-22-23.35-35.64-55.74-35.64-91.56 0-71.13 53.76-128.79 120.07-128.79s120.06 57.66 120.06 128.79c0 35.48-13.37 67.6-35 90.9A234.57 234.57 0 0 1 852 726.11V536.18h65.89c9 0 13.46-11 7.16-17.49L520.17 101.52a9.94 9.94 0 0 0-14.32 0L101 518.69c-6.3 6.48-1.79 17.49 7.16 17.49h63.72V917a11.43 11.43 0 0 0 11.28 11.5h290.33c3.6-106.27 66.99-196.13 155.16-232.07z m-294.6 181.75a9.2 9.2 0 0 1-9.09 9.26h-67.91a9.2 9.2 0 0 1-9.09-9.26v-69.24a9.21 9.21 0 0 1 9.09-9.27H325a9.21 9.21 0 0 1 9.09 9.27z m0-120a9.21 9.21 0 0 1-9.09 9.27h-67.91a9.21 9.21 0 0 1-9.09-9.27V689a9.21 9.21 0 0 1 9.09-9.27H325a9.21 9.21 0 0 1 9.09 9.27z m0-120.28a9.2 9.2 0 0 1-9.09 9.26h-67.91a9.2 9.2 0 0 1-9.09-9.26v-69.23a9.21 9.21 0 0 1 9.09-9.27H325a9.21 9.21 0 0 1 9.09 9.27zM450 878.18a9.2 9.2 0 0 1-9.09 9.26H373a9.2 9.2 0 0 1-9.09-9.26v-69.24a9.21 9.21 0 0 1 9.09-9.27h68a9.21 9.21 0 0 1 9.09 9.27z m-9-110.72h-68a9.21 9.21 0 0 1-9.09-9.27V689a9.21 9.21 0 0 1 9.09-9.27h68a9.21 9.21 0 0 1 9 9.27v69.24a9.21 9.21 0 0 1-9 9.22z" fill="#ffffff" p-id="10527"></path><path d="M719.81 707.16c45.92-3.22 82.27-45.61 82.27-97.45 0-53.94-39.35-97.67-87.88-97.67s-87.88 43.73-87.88 97.67c0 51.84 36.35 94.23 82.26 97.45C601.87 710.47 516.27 807.64 516.27 927h395.85c0-119.36-85.59-216.53-192.31-219.84z" fill="#ffffff" p-id="10528"></path></svg>