<?xml version="1.0" standalone="no"?><!DOCTYPE svg PUBLIC "-//W3C//DTD SVG 1.1//EN" "http://www.w3.org/Graphics/SVG/1.1/DTD/svg11.dtd"><svg class="icon" width="200px" height="200.00px" viewBox="0 0 1024 1024" version="1.1" xmlns="http://www.w3.org/2000/svg"><path fill="#000000" d="M256 853.333333V170.666667h512v298.666666h85.333333V128a42.666667 42.666667 0 0 0-42.666666-42.666667H213.333333a42.666667 42.666667 0 0 0-42.666666 42.666667v768a42.666667 42.666667 0 0 0 42.666666 42.666667h233.386667l52.906667-85.333334H256zM682.666667 298.666667v170.666666h-15.872a42.666667 42.666667 0 0 0-42.666667 42.666667H384a42.666667 42.666667 0 0 1-42.666667-42.666667V298.666667a42.666667 42.666667 0 0 1 42.666667-42.666667h256a42.666667 42.666667 0 0 1 42.666667 42.666667z m-298.666667 256h240.128v85.333333H384a42.666667 42.666667 0 1 1 0-85.333333z m170.666667 128a42.666667 42.666667 0 0 1 37.248 21.802666L552.490667 768H384a42.666667 42.666667 0 1 1 0-85.333333h170.666667z m42.666666-341.333334h-170.666666v85.333334h170.666666V341.333333z m195.114667 256H743.253333v141.397334l-16.426666 22.485333L627.498667 896h280.661333l-99.285333-134.826667-16.426667-22.442666V597.333333z m-140.117333 122.197334c1.706667-2.986667 3.541333-5.888 5.546666-8.661334V554.666667a42.666667 42.666667 0 0 1 42.666667-42.666667h134.570667a42.666667 42.666667 0 0 1 42.666666 42.666667v156.202666c2.005333 2.773333 3.84 5.674667 5.546667 8.661334l134.826667 198.314666A42.666667 42.666667 0 0 1 980.992 981.333333H554.666667a42.666667 42.666667 0 0 1-37.205334-63.488l134.826667-198.314666z"  /></svg>