<?xml version="1.0" standalone="no"?><!DOCTYPE svg PUBLIC "-//W3C//DTD SVG 1.1//EN" "http://www.w3.org/Graphics/SVG/1.1/DTD/svg11.dtd"><svg class="icon" width="200px" height="200.00px" viewBox="0 0 1024 1024" version="1.1" xmlns="http://www.w3.org/2000/svg"><path fill="#000000" d="M929.352875 719.998241l-605.046163-0.760317 32.57593-53.045123 431.197696 0c11.728112 0 22.151509-7.383154 26.169009-18.432815L954.978509 254.540254c3.041266-8.524141 1.737574-17.971303-3.475148-25.382087-5.211698-7.384178-13.681604-11.782348-22.694885-11.782348L274.519796 217.375819l-27.526937-115.346051c-3.040243-12.514012-14.224979-21.336958-27.037796-21.336958-0.10847 0-0.10847 0-0.216941 0L94.536608 81.371262c-15.364943 0.081864-27.743878 12.595876-27.689642 27.960819 0.10847 15.284101 12.541641 27.635407 27.798113 27.635407 0.10847 0 0.10847 0 0.216941 0l103.157451-0.569982L315.294454 627.590622l-64.338331 104.839767c-5.265934 8.578376-5.483898 19.329231-0.596588 28.123524 4.940522 8.768711 14.224979 14.224979 24.26873 14.224979l654.724609 0.814552 0 0c15.311731 0 27.799136-12.43317 27.799136-27.771507S944.772053 720.024847 929.352875 719.998241zM287.821753 272.973068l601.463568 0L768.480954 610.596576 368.39279 610.596576 287.821753 272.973068z"  /><path fill="#000000" d="M372.79096 797.392936c-40.231283 0-72.915683 32.712029-72.915683 72.943312s32.6844 72.970942 72.915683 72.970942 72.970942-32.738635 72.970942-72.970942S413.022243 797.392936 372.79096 797.392936zM372.79096 887.709941c-9.555633 0-17.319457-7.791453-17.319457-17.374716 0-9.555633 7.763824-17.347087 17.319457-17.347087 9.609869 0 17.373693 7.791453 17.373693 17.347087C390.164652 879.918487 382.400828 887.709941 372.79096 887.709941z"  /><path fill="#000000" d="M761.965563 797.392936c-40.23026 0-72.915683 32.712029-72.915683 72.943312s32.6844 72.970942 72.915683 72.970942c40.231283 0 72.970942-32.738635 72.970942-72.970942S802.19787 797.392936 761.965563 797.392936zM761.965563 887.709941c-9.555633 0-17.319457-7.791453-17.319457-17.374716 0-9.555633 7.763824-17.347087 17.319457-17.347087 9.610892 0 17.374716 7.791453 17.374716 17.347087C779.340279 879.918487 771.576455 887.709941 761.965563 887.709941z"  /></svg>