<?xml version="1.0" standalone="no"?><!DOCTYPE svg PUBLIC "-//W3C//DTD SVG 1.1//EN" "http://www.w3.org/Graphics/SVG/1.1/DTD/svg11.dtd"><svg class="icon" width="200px" height="200.00px" viewBox="0 0 1024 1024" version="1.1" xmlns="http://www.w3.org/2000/svg"><path fill="#000000" d="M815.751758 625.698909c24.371717 8.560485 63.212606 12.123798 64.637414 40.075636 1.692444 33.154586-31.450505 26.84897-51.710707 19.391354-19.977051-7.354182-33.887677-14.978586-63.344485-11.635071-40.773818 4.628687-75.628606 30.478222-91.786344 60.759919-10.855434 20.345535-21.140687 53.752242-14.220929 85.32299 15.604364 71.18998 97.656242 134.442667 184.865616 89.200485 10.34602-5.366949 20.286061-12.448323 28.440566-19.391353 6.772364-5.766465 12.458667-19.845172 28.440566-14.22093 7.341253 16.230141-9.124202 28.868525-18.098425 37.491071-10.100364 9.702141-23.65802 18.949172-34.903919 24.561778-98.422949 49.111919-213.214384-23.555879-226.235475-115.055192-5.612606 5.412202-8.812606 10.188283-15.513858 11.633778-20.282182 4.376566-56.402747 0-87.907556 0H343.890747c-36.491636 0-97.322667 6.10004-115.056484-11.633778-12.228525-12.228525-12.865939-41.638788-18.099718-67.224566-14.148525-69.184646-26.613657-148.50198-41.368565-214.599111-5.57899-24.989737-7.634747-48.786101-12.928-72.39499-10.497293-46.814384-18.398384-91.367434-27.148929-143.49705C125.534384 302.100687 114.187636 268.044929 118.949495 252.090182c5.021737-16.828768 26.633051-17.193374 47.833212-20.684283 17.414465-2.867717 47.544889-4.046869 38.782707 24.563071-4.212364 13.754182-30.10198 9.858586-42.661495 18.099717 16.243071 114.756525 40.278626 221.724444 59.46699 333.534384 2.360889-140.717253 1.292929-288.614141 1.292929-436.955798 0-34.830222-7.824808-66.072566 23.270142-69.809132 44.64097-5.364364 94.959192 0 143.49705 0H745.942626c23.049051 0 55.919192-1.956202 64.637414 6.464647 8.39499 8.10796 6.464646 37.188525 6.464647 59.46699 0 152.78804 1.066667 310.119434-1.292929 458.929131zM265.032404 142.204121c-6.018586 212.71402-0.871434 435.249131-2.585859 650.263273 79.553939 2.350545 172.739232 1.291636 254.674748 1.291636 28.840081 0 58.586505-3.744323 84.030061-1.291636 8.724687 0.839111 13.438707 6.291394 16.805494 5.170424 0.068525-25.303919 2.907798-47.341899 9.049213-64.638707 4.033939-11.357091 13.62101-20.922182 12.928-28.440566-26.489535-0.646465-110.285576 18.985374-102.128485-20.684282 3.258182-15.839677 26.982141-12.926707 50.417778-12.926707 22.21899-0.001293 49.727354-4.293818 62.052848-1.29293 6.714182 1.634263 7.899798 5.453576 10.342141 10.342142 27.982869-30.624323 63.859071-53.352727 118.93398-56.882425-3.013818-157.71798-0.431838-321.035636-1.292929-480.908929-166.454303-0.341333-346.811475-0.147394-513.22699-0.001293z"  /><path fill="#000000" d="M302.522182 197.793616c27.249778-7.577859 82.305293-1.292929 115.056485-1.292929h284.409535c21.357899 0 40.272162-0.028444 46.53899 9.049212 9.054384 13.114182 3.878788 53.670788 3.878788 76.273778 0 20.759273 5.951354 61.035313-3.878788 74.980848-11.694545 16.592162-80.792566 9.050505-111.177697 9.050505H396.894384c-27.741091 0-97.261899 9.076364-108.591839-11.63507-7.449859-13.618424-1.292929-46.142061-1.292929-73.68792-0.001293-31.785374-9.946505-75.658343 15.512566-82.738424z m131.86198 32.319354c0.241778 6.790465 10.991192 8.503596 10.342141 14.220929-3.929212-0.810667-11.134707 1.654949-12.928-1.292929v-21.977212c-3.655111-2.051879-14.444606-2.051879-18.099717 0-0.312889 8.50101 2.276848 14.098101 1.292929 23.270141-17.281293 0.817131-37.862141-1.664-53.003636 1.292929 4.230465 33.81398-0.531394 69.073455-12.928 90.493414 3.515475 3.810263 7.945051 6.706424 15.513858 6.464647 6.407758-6.950788 9.486222-17.230869 12.928-27.147636 0.102141 6.361212 2.535434 10.392566 3.878788 15.512565 4.708848 0.399515 8.413091-0.205576 11.635071-1.292929-1.007192 10.056404 4.914424 13.184 11.635071 15.513858 10.466263-6.339232 19.68097-13.93002 28.440565-21.977212 6.184081 11.483798 13.048242 22.286222 32.319354 20.684283 7.310222-6.048323 8.777697-17.939394 10.342141-29.733495-5.816889-1.940687-8.199758-7.314101-16.806788-6.464646-2.389333 3.643475-1.135192 10.930424-3.878787 14.220929-4.875636-3.311192-7.932121-8.442828-10.342142-14.220929 8.683313-10.70804 15.308283-23.474424 20.684283-37.491071-4.17099-4.446384-8.675556-8.561778-16.806788-9.049212-4.353293 8.142869-5.952646 19.039677-11.635071 25.856-1.698909-8.641939-4.203313-16.479677-3.878788-27.148929h36.198142v-15.512566c-2.27297-0.743434-7.59596 1.561859-7.756283-1.292929 8.600566-15.297939-27.923394-34.728081-27.146343-12.928z m140.912484-2.585859c1.011071 16.59604 1.011071 28.65002 0 45.247354 22.028929 2.147556 52.950626 2.147556 74.979556 0 0.20299-11.516121 0.434424-34.898747 0-46.540283-24.585051 0.839111-52.540768-1.692444-74.979556 1.292929z m-16.806787 50.417778c-2.972444 18.142384-0.462869 41.766788-1.29293 62.052848h15.513859c0.743434-2.27297-1.563152-7.59596 1.292929-7.757575h19.391354c-0.170667 3.187071-0.195232 6.22804 1.292929 7.757575 5.125172-0.477091 12.388848 1.185616 15.512566-1.292929-1.261899-19.54004-1.984646-40.110545 0-59.46699-14.713535-2.954343-34.858667-0.477091-51.710707-1.292929z m58.17406 0c-2.672485 20.216242 0.259879 38.777535-1.291636 60.759919 3.123717 2.478545 10.387394 0.815838 15.512565 1.292929 2.550949-0.897293-0.318061-7.213253 2.585859-7.757575h19.391354c0.028444 7.726545 8.683313 6.830545 16.805495 6.464646v-59.46699c-15.141495-2.956929-35.722343-0.475798-53.003637-1.292929z"  /><path fill="#000000" d="M592.102141 241.74804h42.661495v16.806788h-42.661495v-16.806788zM378.79596 259.846465h37.49107c0.634828 17.033051 3.233616 32.100848 7.756283 45.247353-2.547071 7.363232-9.69697 10.124929-14.220929 15.512566-1.459717-13.534384 2.129455-33.198545 2.585858-49.124849-8.75701-2.876768-22.736162-0.53398-33.612282-1.292929v-10.342141z"  /><path fill="#000000" d="M394.308525 285.701172c-0.063354 9.416404 0.827475 19.78699-2.585858 25.856-1.956202 3.214222-11.134707-0.792566-12.928 2.585858 0.07499-9.41899-5.850505-36.005495 15.513858-28.441858zM572.710788 294.751677h20.684283v20.684283h-20.684283v-20.684283zM632.177778 294.751677h21.977212v20.684283H632.177778v-20.684283zM303.815111 405.929374c0.390465-0.100848-0.032323-1.423515 1.292929-1.29293 52.242101 5.156202 90.696404 1.292929 144.78998 1.29293 8.383354 0 39.342545-1.865697 45.247354 2.585858 4.962263 3.740444 7.381333 19.245253 2.585858 27.14893-9.128081 15.041939-82.177293 7.756283-106.007272 7.756282-36.40501 0-95.656081 7.726545-100.835556-12.928-3.298263-13.147798 2.404848-21.851798 12.926707-24.56307zM550.733576 405.929374c0.391758-0.100848-0.032323-1.423515 1.292929-1.29293 51.783111 5.110949 91.253657 1.292929 144.788687 1.29293 9.422869 0 37.920323-2.61301 43.954424 1.292929 8.526869 5.518222 10.091313 26.91103 0 33.612283-7.977374 5.298424-36.342949 2.585859-53.003636 2.585858H633.470707c-32.016808 0-90.506343 7.345131-95.665131-12.928-3.41204-13.407677 2.33503-21.833697 12.928-24.56307zM477.045657 488.666505c13.293899 0.403394 24.201051 3.798626 21.977212 20.684283-2.134626 16.214626-22.528 14.220929-46.540283 14.220929h-59.46699c-26.57099 0-102.031515 8.872081-106.007273-12.928-4.869172-26.69899 24.069172-21.977212 50.417778-21.977212 48.580525 0 96.382707-1.31103 139.619556 0zM745.941333 517.107071c-11.703596 10.188283-30.957899 6.463354-49.126141 6.463353h-109.884768c-17.652364 0-36.452848 3.649939-47.831919-6.463353-12.06303-35.820606 27.479919-28.441859 60.759919-28.441859h98.249697c29.292606 0.001293 58.404202-3.91499 47.833212 28.441859zM302.522182 577.86699c23.307636-0.111192 66.977616 0 107.300202 0 31.235879 0 88.574707-8.821657 89.200485 18.098424 0.45899 19.741737-17.932929 19.391354-42.661495 19.391354h-62.052849c-34.722909 0-105.173333 10.260687-107.300202-16.805495-0.733091-9.346586 3.35903-17.127434 15.513859-20.684283zM550.733576 579.159919c24.022626-7.241697 70.617212-1.292929 100.835555-1.292929 14.31402 0 83.920162-5.749657 93.079273 6.463353 4.951919 6.60299 4.072727 20.164525-1.292929 25.856-10.793374 11.447596-80.025859 5.170424-102.128485 5.170425h-54.296566c-19.580121 0-42.370586 3.209051-47.831919-9.049212-5.639758-12.660364 0.82101-23.888162 11.635071-27.147637zM489.973657 672.239192c4.670061 6.155636 9.627152 7.431758 9.049212 18.099717-1.455838 26.907152-71.314101 16.805495-106.007273 16.805495h-60.759919c-23.926949 0-43.207111 0.994263-45.247354-15.512566-3.428848-27.757899 33.826909-20.685576 62.052849-20.684282 45.088323 0 98.98796-1.042101 140.912485 1.291636zM829.971394 862.276525c13.671434 0.747313 17.675636-6.159515 24.563071-12.928 5.422545-5.329455 12.776727-18.319515 19.391353-18.098424 17.55798 0.584404 5.630707 35.532283 1.292929 42.660202-8.132525 13.363717-25.747394 25.032404-51.710707 21.977212-33.479111-3.939556-50.572929-26.886465-77.565414-19.391353-6.275879 1.742869-16.302545 15.371636-24.56307 12.928-14.431677-4.269253-0.81196-28.454788 6.463353-33.612283-68.33002-57.014303-27.631192-177.065374 69.809131-166.765899 33.036929 3.490909 64.337455 28.783192 74.980849 56.881131 19.343515 51.065535-9.266424 97.926465-42.661495 116.349414z m-42.660202-21.977212c66.297535-0.749899 60.969374-126.785939-7.757576-116.349414-58.485657 8.881131-54.028929 117.047596 7.757576 116.349414z"  /></svg>