<?xml version="1.0" standalone="no"?><!DOCTYPE svg PUBLIC "-//W3C//DTD SVG 1.1//EN" "http://www.w3.org/Graphics/SVG/1.1/DTD/svg11.dtd"><svg t="1679476896644" class="icon" viewBox="0 0 1024 1024" version="1.1" xmlns="http://www.w3.org/2000/svg" p-id="4692" xmlns:xlink="http://www.w3.org/1999/xlink" width="200" height="200"><path d="M684.6425 277.598412l-1.436722-1.467421c-12.489452-12.461823-32.730449-12.461823-45.159526 0L479.700875 434.510138l-158.286026-158.315702c-12.555967-12.524245-32.793894-12.524245-45.225017 0-12.555967 12.462846-12.555967 32.701796 0 45.223994l158.348448 158.317749L276.129456 638.049834c-12.495592 12.429077-12.495592 32.671097 0 45.163619l1.49812 1.434675c12.429077 12.494569 32.66905 12.494569 45.221948 0l158.287049-158.286026 158.283979 158.286026c12.491499 12.494569 32.731472 12.494569 45.220924 0 12.495592-12.493545 12.495592-32.731472 0-45.222971l-158.285003-158.285003 158.285003-158.314679C697.138092 310.299185 697.138092 290.060235 684.6425 277.598412" p-id="4693"></path><path d="M818.881854 140.522454c-187.332573-187.363272-491.033479-187.363272-678.364005 0-187.329503 187.329503-187.329503 491.032456 0 678.362982 187.330526 187.392948 491.031433 187.392948 678.364005 0C1006.274802 631.55491 1006.274802 327.851956 818.881854 140.522454M773.656837 773.660418c-162.344458 162.343435-425.569512 162.407903-587.914994 0-162.40688-162.344458-162.40688-425.602258 0-587.914994 162.344458-162.40688 425.569512-162.40688 587.914994 0C936.063717 348.059184 936.000272 611.31596 773.656837 773.660418" p-id="4694"></path></svg>