<?xml version="1.0" standalone="no"?><!DOCTYPE svg PUBLIC "-//W3C//DTD SVG 1.1//EN" "http://www.w3.org/Graphics/SVG/1.1/DTD/svg11.dtd"><svg class="icon" width="200px" height="200.00px" viewBox="0 0 1024 1024" version="1.1" xmlns="http://www.w3.org/2000/svg"><path fill="#000000" d="M869.003636 67.490909h-721.454545a104.96 104.96 0 0 0-104.727273 104.727273v516.421818a104.96 104.96 0 0 0 104.727273 104.96h325.818182v109.149091H228.538182a34.909091 34.909091 0 0 0 0 69.818182h558.545454a34.909091 34.909091 0 0 0 0-69.818182H543.185455V793.6h325.818181a104.96 104.96 0 0 0 104.96-104.96V172.450909a104.96 104.96 0 0 0-104.96-104.96z m35.141819 621.149091a35.374545 35.374545 0 0 1-35.141819 35.141818h-721.454545a35.374545 35.374545 0 0 1-35.141818-35.141818V172.218182a34.909091 34.909091 0 0 1 34.909091-34.909091h721.454545a35.374545 35.374545 0 0 1 35.141818 35.141818zM719.127273 333.265455L581.818182 470.341818l-137.774546-137.541818a34.676364 34.676364 0 0 0-49.338181 0l-165.934546 166.167273A34.909091 34.909091 0 0 0 253.44 558.545455a35.607273 35.607273 0 0 0 25.832727-10.24l139.636364-141.498182 137.774545 137.774545a35.141818 35.141818 0 0 0 49.338182 0l162.909091-162.909091a34.909091 34.909091 0 0 0-49.338182-49.338182z" /></svg>