<?xml version="1.0" standalone="no"?><!DOCTYPE svg PUBLIC "-//W3C//DTD SVG 1.1//EN" "http://www.w3.org/Graphics/SVG/1.1/DTD/svg11.dtd"><svg class="icon" width="200px" height="200.00px" viewBox="0 0 1024 1024" version="1.1" xmlns="http://www.w3.org/2000/svg"><path fill="#000000" d="M719.872 716.8a142.336 142.336 0 0 0 142.336-142.336 140.8 140.8 0 0 0-74.752-124.928V298.496a67.072 67.072 0 1 0-134.656 0v150.016a140.8 140.8 0 0 0-74.752 124.928 142.336 142.336 0 0 0 141.824 143.36z m-32.256-226.816a25.6 25.6 0 0 0 16.384-24.064V298.496a15.872 15.872 0 1 1 32.256 0v166.4a25.6 25.6 0 0 0 16.384 24.064 91.136 91.136 0 1 1-65.024 0zM719.872 566.784m-49.152 0a49.152 49.152 0 1 0 98.304 0 49.152 49.152 0 1 0-98.304 0ZM512 0a512 512 0 1 0 512 512A512 512 0 0 0 512 0z m0 972.8a460.8 460.8 0 1 1 460.8-460.8 460.8 460.8 0 0 1-460.8 460.8zM428.544 706.56a140.288 140.288 0 0 0 123.904-153.6c0-83.968-123.904-224.256-123.904-224.256s-123.904 141.824-123.904 225.792a140.288 140.288 0 0 0 123.904 152.064zM852.48 712.192a141.824 141.824 0 0 0-96.768 37.376 93.696 93.696 0 0 1-130.048 0 143.872 143.872 0 0 0-193.536 0 93.184 93.184 0 0 1-130.048 0 141.312 141.312 0 0 0-97.28-37.376 25.6 25.6 0 0 0 0 51.2 91.648 91.648 0 0 1 65.024 26.624 143.872 143.872 0 0 0 193.536 0 93.184 93.184 0 0 1 130.048 0 143.872 143.872 0 0 0 193.536 0 92.16 92.16 0 0 1 65.024-26.624 25.6 25.6 0 0 0 0-51.2z" /></svg>