<?xml version="1.0" standalone="no"?><!DOCTYPE svg PUBLIC "-//W3C//DTD SVG 1.1//EN" "http://www.w3.org/Graphics/SVG/1.1/DTD/svg11.dtd"><svg class="icon" width="200px" height="200.00px" viewBox="0 0 1024 1024" version="1.1" xmlns="http://www.w3.org/2000/svg"><path fill="#000000" d="M677 315.6v90H327v-90h350zM550.4 539.7H327v90h223.4v-90zM628.6 870H203V154h590v484.6h90V64H113v896h515.6v-90z m207.5-70.4c-24.8 0-45 20.2-45 45s20.2 45 45 45 45-20.2 45-45-20.2-45-45-45m0-90c74.6 0 135 60.4 135 135s-60.4 135-135 135-135-60.4-135-135 60.4-135 135-135z" /></svg>