<?xml version="1.0" standalone="no"?><!DOCTYPE svg PUBLIC "-//W3C//DTD SVG 1.1//EN" "http://www.w3.org/Graphics/SVG/1.1/DTD/svg11.dtd"><svg t="1679732099054" class="icon" viewBox="0 0 1024 1024" version="1.1" xmlns="http://www.w3.org/2000/svg" p-id="5019" xmlns:xlink="http://www.w3.org/1999/xlink" width="200" height="200"><path d="M677.3 930.5h-332c-52.3 0-94.8-42.5-94.8-94.8V222.9c0-52.3 42.5-94.8 94.8-94.8h332c52.3 0 94.8 42.5 94.8 94.8v612.8c0 52.3-42.5 94.8-94.8 94.8z m-332-762.3c-30.1 0-54.7 24.5-54.7 54.7v612.8c0 30.1 24.5 54.7 54.7 54.7h332c30.1 0 54.7-24.5 54.7-54.7V222.9c0-30.1-24.5-54.7-54.7-54.7h-332z" fill="#231815" p-id="5020"></path><path d="M752 729.9H270.6c-11.1 0-20.1-9-20.1-20.1s9-20.1 20.1-20.1H752c11.1 0 20.1 9 20.1 20.1s-9 20.1-20.1 20.1zM511.3 850.2c-22.1 0-40.1-18-40.1-40.1s18-40.1 40.1-40.1 40.1 18 40.1 40.1-18 40.1-40.1 40.1z m0-40.1h20.1-20.1z" fill="#231815" p-id="5021"></path></svg>