<?xml version="1.0" standalone="no"?><!DOCTYPE svg PUBLIC "-//W3C//DTD SVG 1.1//EN" "http://www.w3.org/Graphics/SVG/1.1/DTD/svg11.dtd"><svg t="1714295040997" class="icon" viewBox="0 0 1024 1024" version="1.1" xmlns="http://www.w3.org/2000/svg" p-id="5052" xmlns:xlink="http://www.w3.org/1999/xlink" width="160" height="160"><path d="M423 512c0-49.092 39.797-88.889 88.889-88.889s88.889 39.797 88.889 88.889-39.797 88.889-88.89 88.889C462.798 600.889 423 561.092 423 512z m0 262.111c0-49.092 39.797-88.889 88.889-88.889s88.889 39.797 88.889 88.89c0 49.091-39.797 88.888-88.89 88.888C462.798 863 423 823.203 423 774.111z m0-523.222C423 201.797 462.797 162 511.889 162s88.889 39.797 88.889 88.889-39.797 88.889-88.89 88.889c-49.091 0-88.888-39.797-88.888-88.89z" fill="#2B2B2B" p-id="5053"></path></svg>