<?xml version="1.0" standalone="no"?><!DOCTYPE svg PUBLIC "-//W3C//DTD SVG 1.1//EN" "http://www.w3.org/Graphics/SVG/1.1/DTD/svg11.dtd"><svg t="1679465561773" class="icon" viewBox="0 0 1024 1024" version="1.1" xmlns="http://www.w3.org/2000/svg" p-id="2873" xmlns:xlink="http://www.w3.org/1999/xlink" width="200" height="200"><path d="M760.901837 398.119323l55.821353 0 0 55.81112-55.821353 0 0-55.81112ZM565.552683 398.119323l139.538033 0 0 55.81112-139.538033 0 0-55.81112ZM370.193297 788.827863l279.076066 0 0 55.81112-279.076066 0 0-55.81112ZM370.193297 649.289829l279.076066 0 0 55.81112-279.076066 0 0-55.81112ZM202.749704 705.10095l55.81112 0 0-111.632473-55.81112 0 0-55.81112 613.973486 0 0 55.81112-55.821353 0 0 111.632473 55.821353 0c61.019749 0 83.71668-22.696931 83.71668-83.71668l0-223.264946c0-46.171576-37.555337-83.726913-83.71668-83.726913l-613.973486 0c-46.171576 0-83.696214 37.555337-83.696214 83.726913l0 223.264946C119.05349 666.481374 182.856631 705.10095 202.749704 705.10095zM956.261223 398.119323l0 223.264946c0 115.336842-75.878155 139.538033-139.538033 139.538033l-55.821353 0 0 195.349153-502.341013 0 0-195.349153-55.81112 0c-46.5195 0-139.5278-60.313667-139.5278-139.538033l0-223.264946c0-76.942393 62.585407-139.538033 139.5278-139.538033l83.726913 0L286.476617 63.221904l446.51966 0 0 195.359386 83.726913 0C893.65535 258.58129 956.261223 321.17693 956.261223 398.119323zM705.090716 900.460336l0-306.99186-390.70854 0 0 306.99186L705.090716 900.460336zM677.185156 258.58129 677.185156 119.043257l-334.89742 0 0 139.538033L677.185156 258.58129z"  p-id="2874"></path></svg>