<?xml version="1.0" standalone="no"?><!DOCTYPE svg PUBLIC "-//W3C//DTD SVG 1.1//EN" "http://www.w3.org/Graphics/SVG/1.1/DTD/svg11.dtd"><svg class="icon" width="200px" height="181.08px" viewBox="0 0 1131 1024" version="1.1" xmlns="http://www.w3.org/2000/svg"><path fill="#000000" d="M167.183673 867.265306h483.265307c-20.897959-20.897959-39.183673-47.020408-52.244898-73.142857H167.183673c-52.244898 0-94.040816-41.795918-94.040816-94.040816V167.183673c0-52.244898 41.795918-94.040816 94.040816-94.040816H835.918367c52.244898 0 94.040816 41.795918 94.040817 94.040816v289.959184c28.734694 13.061224 52.244898 28.734694 73.142857 49.632653v-339.591837C1003.102041 75.755102 929.959184 0 835.918367 0H167.183673C75.755102 0 0 75.755102 0 167.183673v532.89796c0 91.428571 75.755102 167.183673 167.183673 167.183673zM867.265306 935.183673c-13.061224 2.612245-28.734694 5.22449-41.795918 5.22449-15.673469 0-31.346939-2.612245-44.408164-5.22449H36.571429c-20.897959 0-36.571429 15.673469-36.571429 36.571429s15.673469 36.571429 36.571429 36.571429H966.530612l-73.142857-73.142858h-26.122449z"  /><path fill="#000000" d="M1118.040816 961.306122l-112.32653-112.32653c39.183673-41.795918 62.693878-96.653061 62.693877-159.346939 0-130.612245-104.489796-235.102041-235.102041-235.102041s-235.102041 104.489796-235.10204 235.102041 104.489796 235.102041 235.10204 235.102041c41.795918 0 80.979592-10.44898 114.938776-28.734694l117.55102 117.55102c7.836735 7.836735 15.673469 10.44898 26.122449 10.44898s18.285714-2.612245 26.122449-10.44898c15.673469-13.061224 15.673469-36.571429 0-52.244898zM671.346939 689.632653c0-88.816327 73.142857-161.959184 161.959183-161.959184s161.959184 73.142857 161.959184 161.959184-73.142857 161.959184-161.959184 161.959184-161.959184-73.142857-161.959183-161.959184zM303.020408 673.959184H175.020408c-13.061224 0-20.897959 10.44898-20.897959 20.897959 0 13.061224 10.44898 20.897959 20.897959 20.897959h363.102041c13.061224 0 20.897959-10.44898 20.897959-20.897959 0-13.061224-10.44898-20.897959-20.897959-20.897959h-62.693878c20.897959-23.510204 33.959184-52.244898 33.959184-83.591837 0-49.632653-28.734694-91.428571-70.530612-109.714286l-128-101.877551h-2.612245c-7.836735-23.510204-23.510204-41.795918-47.020408-52.244898v-2.612245L227.265306 261.22449h104.489796c7.836735 10.44898 23.510204 18.285714 39.183674 18.285714 23.510204 0 41.795918-15.673469 47.020408-39.183673h20.897959c5.22449 31.346939 31.346939 52.244898 62.693877 52.244898 13.061224 0 26.122449-5.22449 39.183674-13.061225 5.22449-2.612245 5.22449-10.44898 2.612245-15.673469-7.836735-2.612245-15.673469-2.612245-20.897959 0-7.836735 5.22449-15.673469 7.836735-23.510204 7.836734-23.510204 0-41.795918-18.285714-41.795919-41.795918s18.285714-41.795918 41.795919-41.795918c10.44898 0 18.285714 2.612245 26.122448 10.448979 5.22449 5.22449 13.061224 2.612245 15.67347-2.612245s2.612245-13.061224-2.612245-15.673469c-10.44898-10.44898-26.122449-15.673469-39.183673-15.673469-31.346939 0-57.469388 20.897959-62.693878 49.632653h-20.897959c-5.22449-20.897959-23.510204-33.959184-47.020408-33.959184-13.061224 0-23.510204 5.22449-31.346939 13.061224H224.653061h-2.612245c-10.44898-5.22449-23.510204-10.44898-36.571428-10.448979-28.734694 0-52.244898 20.897959-52.244898 49.632653 0 7.836735 2.612245 13.061224 5.22449 20.897959l7.836734 120.163265c-2.612245 10.44898-5.22449 20.897959-5.22449 31.346939 0 33.959184 20.897959 65.306122 49.632654 78.367347l78.367346 112.326531c0 28.734694 13.061224 57.469388 33.959184 78.367347z m185.469388-83.591837c0 28.734694-13.061224 54.857143-33.959184 73.142857-2.612245 2.612245-5.22449 7.836735-2.612245 10.44898h-125.387755c0-5.22449 0-7.836735-2.612245-10.44898-20.897959-18.285714-31.346939-44.408163-31.346938-73.142857 0-54.857143 44.408163-99.265306 99.265306-99.265306 52.244898 0 96.653061 44.408163 96.653061 99.265306zM167.183673 342.204082l-2.612244-62.693878c7.836735 2.612245 13.061224 5.22449 20.897959 5.22449 7.836735 0 15.673469-2.612245 23.510204-5.22449l23.510204 41.795918h-5.22449c-23.510204-5.22449-44.408163 5.22449-60.081633 20.89796z m227.265307-109.714286c0 13.061224-10.44898 26.122449-26.122449 26.122449-13.061224 0-26.122449-10.44898-26.122449-26.122449s10.44898-26.122449 26.122449-26.122449 26.122449 13.061224 26.122449 26.122449z m-70.530613-13.061225c0 5.22449-2.612245 7.836735-2.612245 13.061225v5.22449H235.102041v-5.22449c0-5.22449 0-7.836735-2.612245-13.061225h91.428571z m-138.448979-13.061224c15.673469 0 28.734694 13.061224 28.734694 28.734694s-13.061224 26.122449-28.734694 26.122449S156.734694 248.163265 156.734694 232.489796s13.061224-26.122449 28.734694-26.122449z m-23.510204 198.530612c0-36.571429 28.734694-65.306122 65.306122-65.306122s65.306122 28.734694 65.306123 65.306122S263.836735 470.204082 227.265306 470.204082s-65.306122-31.346939-65.306122-65.306123z m65.306122 86.204082c47.020408 0 83.591837-36.571429 86.204082-83.591837l75.755102 60.081633c-57.469388 0-104.489796 39.183673-117.551021 91.428571l-47.020408-67.918367h2.612245z"  /><path fill="#000000" d="M263.836735 404.897959c0-20.897959-18.285714-39.183673-39.183674-39.183673s-39.183673 18.285714-39.183673 39.183673 18.285714 39.183673 39.183673 39.183674 39.183673-18.285714 39.183674-39.183674z m-52.244898 0c0-7.836735 7.836735-15.673469 15.673469-15.673469s15.673469 7.836735 15.67347 15.673469-7.836735 15.673469-15.67347 15.67347-15.673469-7.836735-15.673469-15.67347zM334.367347 590.367347c0 31.346939 26.122449 54.857143 54.857143 54.857143 31.346939 0 54.857143-26.122449 54.857143-54.857143 0-31.346939-26.122449-54.857143-54.857143-54.857143-31.346939-2.612245-54.857143 23.510204-54.857143 54.857143z m88.816326 0c0 18.285714-15.673469 33.959184-33.959183 33.959184s-33.959184-15.673469-33.959184-33.959184c0-18.285714 15.673469-33.959184 33.959184-33.959184s33.959184 15.673469 33.959183 33.959184zM613.877551 321.306122h148.897959c36.571429 0 65.306122-28.734694 65.306123-65.306122v-52.244898c0-36.571429-28.734694-65.306122-65.306123-65.306122h-148.897959c-36.571429 0-65.306122 28.734694-65.306122 65.306122v54.857143c0 33.959184 28.734694 62.693878 65.306122 62.693877zM574.693878 203.755102c0-20.897959 18.285714-39.183673 39.183673-39.183673h148.897959c20.897959 0 39.183673 18.285714 39.183674 39.183673v54.857143c0 20.897959-18.285714 39.183673-39.183674 39.183673h-148.897959c-20.897959 0-39.183673-18.285714-39.183673-39.183673V203.755102z"  /></svg>