<?xml version="1.0" standalone="no"?><!DOCTYPE svg PUBLIC "-//W3C//DTD SVG 1.1//EN" "http://www.w3.org/Graphics/SVG/1.1/DTD/svg11.dtd"><svg class="icon" width="200px" height="200.00px" viewBox="0 0 1024 1024" version="1.1" xmlns="http://www.w3.org/2000/svg"><path fill="#000000" d="M876.7 587.7c-44.9 6.7-84.3 33.5-106.8 72.8-22.8 39.1-26.4 86.4-9.9 128.5-38.2 34.2-83.2 60.1-132 76.1-28.2-35.4-71.2-56-116.6-55.8-45.4-0.2-88.4 20.4-116.6 55.8-48.8-16-93.7-41.9-132-76 16.6-42.1 13-89.4-9.8-128.5-22.5-39.3-61.9-66.1-106.8-72.8-10.4-50.1-10.4-101.8 0-152 44.9-6.6 84.3-33.4 106.8-72.7 22.8-39.1 26.4-86.4 9.8-128.5 38.2-34.2 83.2-60.1 132-76.1 28.3 35.4 71.2 56 116.6 55.8 46.3 0 88.7-20.8 116.6-55.8 48.8 16 93.7 41.9 132 76.1-16.6 42.1-13 89.4 9.9 128.5 22.5 39.3 61.9 66.1 106.8 72.7 10.5 50 10.5 101.7 0 151.9m65.5-197.9c-4.7-16.9-20.7-28.2-38.3-27-28.3 1.9-55.3-12.5-69.4-37-14.3-24.5-13.3-54.9 2.5-78.5 9.7-14.6 7.9-33.9-4.3-46.4-57.8-59.5-131.1-101.7-211.7-122-17-4.3-34.7 3.9-42.5 19.6-12.5 25.4-38.5 41.5-66.9 41.4-28.4 0.1-54.4-16-66.9-41.4-7.8-15.7-25.5-23.8-42.5-19.6-80.6 20.2-153.9 62.5-211.8 122-12.2 12.6-14 31.9-4.3 46.5 15.8 23.5 16.8 54 2.5 78.4-14.1 24.6-41 38.9-69.4 37-17.6-1.3-33.6 10-38.2 27-11.3 39.6-17 80.7-17 121.9 0 41.4 5.7 82.4 16.9 121.9 4.8 16.9 20.7 28.1 38.2 27 28.3-1.8 55.2 12.6 69.4 37.1 14.3 24.6 13.4 54.7-2.5 78.4-9.7 14.6-7.9 33.9 4.3 46.4 57.8 59.5 131.2 101.8 211.8 122 17 4.3 34.7-3.8 42.5-19.5 12.5-25.4 38.5-41.5 66.9-41.3 28.6 0 54.2 15.8 66.9 41.3 7.8 15.7 25.5 23.8 42.5 19.6 80.6-20.2 153.9-62.5 211.8-122 12.2-12.6 14-31.9 4.3-46.5-15.8-23.5-16.7-53.9-2.5-78.3 14-24.7 41-39.1 69.4-37.1 17.5 1 33.5-10.1 38.3-27 11.3-39.7 17-80.7 16.9-121.9 0-41.5-5.7-82.5-16.9-122M511.6 623.2c-61.7 0-111.9-50.1-111.9-111.5 0-61.5 50.2-111.5 111.9-111.5s111.9 50 111.9 111.5-50.2 111.5-111.9 111.5m0-297.4c-102.8 0-186.5 83.4-186.5 185.9s83.7 185.9 186.5 185.9 186.5-83.4 186.5-185.9c-0.1-102.6-83.7-185.9-186.5-185.9" /></svg>