<?xml version="1.0" standalone="no"?><!DOCTYPE svg PUBLIC "-//W3C//DTD SVG 1.1//EN" "http://www.w3.org/Graphics/SVG/1.1/DTD/svg11.dtd"><svg t="1701080475217" class="icon" viewBox="0 0 1024 1024" version="1.1" xmlns="http://www.w3.org/2000/svg" p-id="15159" id="mx_n_1701080475217" xmlns:xlink="http://www.w3.org/1999/xlink" width="200" height="200"><path d="M883.5 1023.6h-741C66.1 1023.6 4 961.5 4 885.1V435.6c0-21 17-38 38-38s38 17 38 38v449.5c0 34.5 28 62.5 62.5 62.5h741c34.5 0 62.5-28 62.5-62.5V435.6c0-21 17-38 38-38s38 17 38 38v449.5c0 76.4-62.1 138.5-138.5 138.5z"  p-id="15160"></path><path d="M511.9 702.3c-22.8 0-45.5-5.6-66.2-16.9L27.1 457.8c-18.4-10-25.3-33.1-15.2-51.5C21.9 387.8 45 381 63.4 391L482 618.6c18.5 10 40.6 10.2 59.2 0.4l425.1-225.1c18.5-9.8 41.5-2.8 51.4 15.8 9.8 18.5 2.8 41.5-15.8 51.4L576.7 686.2c-20.4 10.7-42.6 16.1-64.8 16.1z"  p-id="15161"></path><path d="M42.5 463.7c-13.8 0-27.1-7.5-33.8-20.6-9.7-18.7-2.3-41.6 16.3-51.2L195.8 304c18.7-9.6 41.6-2.3 51.2 16.4 9.6 18.7 2.3 41.6-16.4 51.2L59.8 459.5c-5.5 2.8-11.5 4.2-17.3 4.2zM981.1 460.7c-5.6 0-11.2-1.2-16.5-3.8l-167.4-81c-18.9-9.1-26.8-31.9-17.6-50.8 9.1-18.9 31.9-26.8 50.8-17.6l167.4 81c18.9 9.1 26.8 31.9 17.6 50.8-6.6 13.5-20.2 21.4-34.3 21.4z"  p-id="15162"></path><path d="M807.1 549.6c-21 0-38-17-38-38V141c0-34.1-27.8-61.9-61.9-61.9H320.7c-34.1 0-61.9 27.8-61.9 61.9v370.6c0 21-17 38-38 38s-38-17-38-38V141c0-76 61.9-137.9 137.9-137.9h386.5c76 0 137.9 61.9 137.9 137.9v370.6c0 21-17 38-38 38z"  p-id="15163"></path><path d="M641.8 269.6h-257c-21 0-38-17-38-38s17-38 38-38h257.1c21 0 38 17 38 38s-17.1 38-38.1 38zM640.8 435.6h-257c-21 0-38-17-38-38s17-38 38-38h257.1c21 0 38 17 38 38s-17.1 38-38.1 38z"  p-id="15164"></path></svg>