<?xml version="1.0" standalone="no"?><!DOCTYPE svg PUBLIC "-//W3C//DTD SVG 1.1//EN" "http://www.w3.org/Graphics/SVG/1.1/DTD/svg11.dtd"><svg class="icon" width="200px" height="200.00px" viewBox="0 0 1024 1024" version="1.1" xmlns="http://www.w3.org/2000/svg"><path fill="#000000" d="M609.6 168c88.8 0 168.8 36 226.4 94.4l56.8-56.8C820 132.8 720 88 609.6 88s-210.4 44.8-283.2 117.6l56.8 56.8C440.8 204 520.8 168 609.6 168zM251.2 648h80v80h-80V648z m120 0h80v80h-80V648z m120 0h80v80h-80V648zM961.6 907.2l-144.8 60.8-150.4-62.4c-7.2-2.4-14.4 0.8-17.6 8-2.4 6.4 0.8 13.6 7.2 16.8l155.2 64.8c3.2 1.6 7.2 1.6 10.4 0l150.4-62.4c6.4-3.2 9.6-11.2 6.4-17.6-3.2-7.2-10.4-10.4-16.8-8zM656 788.8l155.2 64.8c3.2 1.6 7.2 1.6 10.4 0l150.4-63.2c7.2-3.2 10.4-11.2 7.2-17.6-1.6-3.2-4-5.6-7.2-7.2l-155.2-64c-3.2-1.6-7.2-1.6-10.4 0L656 763.2c-3.2 1.6-6.4 4-7.2 7.2-3.2 7.2 0 15.2 7.2 18.4z m305.6 49.6l-144.8 60.8-150.4-62.4c-7.2-2.4-14.4 0.8-17.6 8-2.4 6.4 0.8 13.6 7.2 16.8l155.2 64.8c3.2 1.6 7.2 1.6 10.4 0l150.4-62.4c6.4-3.2 9.6-11.2 6.4-17.6-3.2-7.2-10.4-9.6-16.8-8z"  /><path fill="#000000" d="M600 768H211.2V605.6h560v76.8h80V525.6h-720V848H600zM609.6 328c44 0 84.8 18.4 113.6 47.2l56.8-56.8C736 275.2 676 248 609.6 248S483.2 275.2 440 318.4l56.8 56.8c28-28.8 68.8-47.2 112.8-47.2zM552.8 432l56.8 56.8 56.8-56.8c-14.4-14.4-34.4-24-56.8-24s-42.4 9.6-56.8 24z"  /></svg>