<?xml version="1.0" standalone="no"?><!DOCTYPE svg PUBLIC "-//W3C//DTD SVG 1.1//EN" "http://www.w3.org/Graphics/SVG/1.1/DTD/svg11.dtd"><svg class="icon" width="200px" height="200.00px" viewBox="0 0 1024 1024" version="1.1" xmlns="http://www.w3.org/2000/svg"><path fill="#000000" d="M857.6 307.2V105.6c0-32-25.6-54.4-54.4-57.6h-256c-32 0-54.4 25.6-54.4 57.6V240c41.6-16 83.2-22.4 128-22.4 86.4 0 172.8 32 236.8 89.6z m-595.2 224c3.2-25.6 9.6-48 16-70.4H137.6c-32 0-54.4 25.6-54.4 57.6v256c0 32 25.6 54.4 54.4 57.6h220.8c-9.6-9.6-19.2-19.2-25.6-28.8-57.6-80-83.2-176-70.4-272z m691.2 387.2l-99.2-128c3.2-6.4 3.2-9.6 3.2-16v-12.8c80-105.6 83.2-256-3.2-364.8l-3.2-6.4c-89.6-108.8-240-140.8-361.6-83.2-12.8 6.4-28.8 12.8-41.6 22.4-6.4 3.2-9.6 6.4-12.8 9.6-28.8 22.4-54.4 48-73.6 80-6.4 12.8-16 25.6-22.4 41.6-41.6 96-28.8 214.4 38.4 304 16 19.2 32 38.4 51.2 51.2 96 76.8 233.6 86.4 342.4 22.4L876.8 976c6.4 9.6 19.2 16 32 19.2 12.8 0 25.6-3.2 35.2-9.6 9.6-6.4 16-19.2 19.2-32 0-12.8-3.2-25.6-9.6-35.2zM758.4 761.6c-80 60.8-188.8 64-268.8 9.6-16-9.6-28.8-22.4-41.6-35.2-6.4-6.4-9.6-9.6-12.8-16-57.6-76.8-64-176-19.2-256 16-28.8 35.2-51.2 60.8-70.4 92.8-73.6 227.2-64 310.4 25.6 12.8 12.8 22.4 28.8 32 44.8 57.6 99.2 32 227.2-60.8 297.6zM137.6 419.2h156.8c25.6-51.2 60.8-92.8 102.4-128 16-12.8 32-22.4 51.2-32V105.6c0-16-6.4-28.8-16-38.4s-25.6-16-38.4-16h-256c-32 0-54.4 25.6-54.4 57.6v256c-3.2 28.8 22.4 54.4 54.4 54.4z" /></svg>