<?xml version="1.0" standalone="no"?><!DOCTYPE svg PUBLIC "-//W3C//DTD SVG 1.1//EN" "http://www.w3.org/Graphics/SVG/1.1/DTD/svg11.dtd"><svg t="1725351683850" class="icon" viewBox="0 0 1024 1024" version="1.1" xmlns="http://www.w3.org/2000/svg" p-id="19758" xmlns:xlink="http://www.w3.org/1999/xlink" width="200" height="200"><path d="M134.095238 936.228571H358.4v-828.952381H134.095238v828.952381zM246.247619 877.714286c-24.380952 0-48.761905-19.504762-48.761905-48.761905 0-24.380952 19.504762-48.761905 48.761905-48.761905 24.380952 0 48.761905 19.504762 48.761905 48.761905-4.87619 29.257143-24.380952 48.761905-48.761905 48.761905M173.104762 263.314286h141.409524v39.009524H173.104762v-39.009524z m0 78.019047h141.409524v39.009524H173.104762V341.333333z m229.180952 594.895238h224.304762v-828.952381H402.285714v828.952381z m112.152381-58.514285c-24.380952 0-48.761905-19.504762-48.761905-48.761905 0-24.380952 19.504762-48.761905 48.761905-48.761905 24.380952 0 48.761905 19.504762 48.761905 48.761905-4.87619 29.257143-24.380952 48.761905-48.761905 48.761905M441.295238 263.314286h141.409524v39.009524H441.295238v-39.009524z m0 78.019047h141.409524v39.009524H441.295238V341.333333z m229.180952 594.895238H894.780952v-828.952381h-224.304762v828.952381z m112.152381-58.514285c-24.380952 0-48.761905-19.504762-48.761904-48.761905 0-24.380952 19.504762-48.761905 48.761904-48.761905 24.380952 0 48.761905 24.380952 48.761905 48.761905 0 29.257143-19.504762 48.761905-48.761905 48.761905m68.266667-497.371429h-141.409524V341.333333h141.409524v39.009524z m4.876191-78.019047h-141.409524v-39.009524h141.409524v39.009524z m0 0" p-id="19759"></path></svg>